<svg xmlns="http://www.w3.org/2000/svg" version="1.1" xmlns:xlink="http://www.w3.org/1999/xlink" xmlns:svgjs="http://svgjs.dev/svgjs" width="1440" height="560" preserveAspectRatio="none" viewBox="0 0 1440 560"><g mask="url(&quot;#SvgjsMask1013&quot;)" fill="none"><rect width="1440" height="560" x="0" y="0" fill="#0e2a47"></rect><path d="M-68.94 520.4L-68.94 520.4" stroke="#132e65" stroke-width="1.5"></path><path d="M-68.94 520.4L105.7 512.42" stroke="#132e65" stroke-width="1.5"></path><path d="M104.69 371.33L104.69 371.33" stroke="#132e65" stroke-width="1.5"></path><path d="M104.69 371.33L198.33 359.1" stroke="#132e65" stroke-width="1.5"></path><path d="M104.69 371.33L105.7 512.42" stroke="#132e65" stroke-width="1.5"></path><path d="M104.69 371.33L227.88 549.63" stroke="#132e65" stroke-width="1.5"></path><path d="M104.69 371.33L-68.94 520.4" stroke="#132e65" stroke-width="1.5"></path><path d="M104.69 371.33L375.92 378.24" stroke="#132e65" stroke-width="1.5"></path><path d="M105.7 512.42L105.7 512.42" stroke="#132e65" stroke-width="1.5"></path><path d="M105.7 512.42L227.88 549.63" stroke="#132e65" stroke-width="1.5"></path><path d="M105.7 512.42L198.33 359.1" stroke="#132e65" stroke-width="1.5"></path><path d="M105.7 512.42L208.08 681.22" stroke="#132e65" stroke-width="1.5"></path><path d="M198.33 359.1L198.33 359.1" stroke="#132e65" stroke-width="1.5"></path><path d="M198.33 359.1L375.92 378.24" stroke="#132e65" stroke-width="1.5"></path><path d="M198.33 359.1L227.88 549.63" stroke="#132e65" stroke-width="1.5"></path><path d="M227.88 549.63L227.88 549.63" stroke="#132e65" stroke-width="1.5"></path><path d="M208.08 681.22L208.08 681.22" stroke="#132e65" stroke-width="1.5"></path><path d="M208.08 681.22L227.88 549.63" stroke="#132e65" stroke-width="1.5"></path><path d="M208.08 681.22L379.02 708.08" stroke="#132e65" stroke-width="1.5"></path><path d="M208.08 681.22L-68.94 520.4" stroke="#132e65" stroke-width="1.5"></path><path d="M375.92 378.24L375.92 378.24" stroke="#132e65" stroke-width="1.5"></path><path d="M375.92 378.24L536.53 378.82" stroke="#132e65" stroke-width="1.5"></path><path d="M375.92 378.24L506.72 498.99" stroke="#132e65" stroke-width="1.5"></path><path d="M375.92 378.24L227.88 549.63" stroke="#132e65" stroke-width="1.5"></path><path d="M379.02 708.08L379.02 708.08" stroke="#132e65" stroke-width="1.5"></path><path d="M379.02 708.08L548.74 709.27" stroke="#132e65" stroke-width="1.5"></path><path d="M379.02 708.08L227.88 549.63" stroke="#132e65" stroke-width="1.5"></path><path d="M379.02 708.08L506.72 498.99" stroke="#132e65" stroke-width="1.5"></path><path d="M379.02 708.08L651.9 674.09" stroke="#132e65" stroke-width="1.5"></path><path d="M536.53 378.82L536.53 378.82" stroke="#132e65" stroke-width="1.5"></path><path d="M536.53 378.82L506.72 498.99" stroke="#132e65" stroke-width="1.5"></path><path d="M536.53 378.82L706.62 373.65" stroke="#132e65" stroke-width="1.5"></path><path d="M506.72 498.99L506.72 498.99" stroke="#132e65" stroke-width="1.5"></path><path d="M506.72 498.99L645.78 539" stroke="#132e65" stroke-width="1.5"></path><path d="M506.72 498.99L548.74 709.27" stroke="#132e65" stroke-width="1.5"></path><path d="M548.74 709.27L548.74 709.27" stroke="#132e65" stroke-width="1.5"></path><path d="M548.74 709.27L651.9 674.09" stroke="#132e65" stroke-width="1.5"></path><path d="M706.62 373.65L706.62 373.65" stroke="#132e65" stroke-width="1.5"></path><path d="M706.62 373.65L820.15 377.01" stroke="#132e65" stroke-width="1.5"></path><path d="M706.62 373.65L812.09 251.57" stroke="#132e65" stroke-width="1.5"></path><path d="M706.62 373.65L807.2 500.78" stroke="#132e65" stroke-width="1.5"></path><path d="M706.62 373.65L645.78 539" stroke="#132e65" stroke-width="1.5"></path><path d="M645.78 539L645.78 539" stroke="#132e65" stroke-width="1.5"></path><path d="M645.78 539L651.9 674.09" stroke="#132e65" stroke-width="1.5"></path><path d="M645.78 539L807.2 500.78" stroke="#132e65" stroke-width="1.5"></path><path d="M645.78 539L536.53 378.82" stroke="#132e65" stroke-width="1.5"></path><path d="M645.78 539L548.74 709.27" stroke="#132e65" stroke-width="1.5"></path><path d="M651.9 674.09L651.9 674.09" stroke="#132e65" stroke-width="1.5"></path><path d="M651.9 674.09L828.56 689.46" stroke="#132e65" stroke-width="1.5"></path><path d="M651.9 674.09L506.72 498.99" stroke="#132e65" stroke-width="1.5"></path><path d="M651.9 674.09L807.2 500.78" stroke="#132e65" stroke-width="1.5"></path><path d="M812.09 251.57L812.09 251.57" stroke="#132e65" stroke-width="1.5"></path><path d="M812.09 251.57L820.15 377.01" stroke="#132e65" stroke-width="1.5"></path><path d="M820.15 377.01L820.15 377.01" stroke="#132e65" stroke-width="1.5"></path><path d="M807.2 500.78L807.2 500.78" stroke="#132e65" stroke-width="1.5"></path><path d="M807.2 500.78L820.15 377.01" stroke="#132e65" stroke-width="1.5"></path><path d="M807.2 500.78L828.56 689.46" stroke="#132e65" stroke-width="1.5"></path><path d="M828.56 689.46L828.56 689.46" stroke="#132e65" stroke-width="1.5"></path><path d="M828.56 689.46L988.33 700.77" stroke="#132e65" stroke-width="1.5"></path><path d="M965.31 -54.73L965.31 -54.73" stroke="#132e65" stroke-width="1.5"></path><path d="M965.31 -54.73L1003.81 98.65" stroke="#132e65" stroke-width="1.5"></path><path d="M965.31 -54.73L1123.07 -42.29" stroke="#132e65" stroke-width="1.5"></path><path d="M965.31 -54.73L1125.88 71.12" stroke="#132e65" stroke-width="1.5"></path><path d="M965.31 -54.73L998.46 229.79" stroke="#132e65" stroke-width="1.5"></path><path d="M965.31 -54.73L1288.54 -110.11" stroke="#132e65" stroke-width="1.5"></path><path d="M965.31 -54.73L1161.93 213.97" stroke="#132e65" stroke-width="1.5"></path><path d="M1003.81 98.65L1003.81 98.65" stroke="#132e65" stroke-width="1.5"></path><path d="M1003.81 98.65L1125.88 71.12" stroke="#132e65" stroke-width="1.5"></path><path d="M1003.81 98.65L998.46 229.79" stroke="#132e65" stroke-width="1.5"></path><path d="M998.46 229.79L998.46 229.79" stroke="#132e65" stroke-width="1.5"></path><path d="M968.81 362.89L968.81 362.89" stroke="#132e65" stroke-width="1.5"></path><path d="M968.81 362.89L1089.27 400.31" stroke="#132e65" stroke-width="1.5"></path><path d="M968.81 362.89L998.46 229.79" stroke="#132e65" stroke-width="1.5"></path><path d="M968.81 362.89L820.15 377.01" stroke="#132e65" stroke-width="1.5"></path><path d="M968.81 362.89L994.96 537.8" stroke="#132e65" stroke-width="1.5"></path><path d="M968.81 362.89L812.09 251.57" stroke="#132e65" stroke-width="1.5"></path><path d="M968.81 362.89L807.2 500.78" stroke="#132e65" stroke-width="1.5"></path><path d="M994.96 537.8L994.96 537.8" stroke="#132e65" stroke-width="1.5"></path><path d="M994.96 537.8L1141.56 499.7" stroke="#132e65" stroke-width="1.5"></path><path d="M994.96 537.8L1097.02 654.29" stroke="#132e65" stroke-width="1.5"></path><path d="M994.96 537.8L988.33 700.77" stroke="#132e65" stroke-width="1.5"></path><path d="M988.33 700.77L988.33 700.77" stroke="#132e65" stroke-width="1.5"></path><path d="M988.33 700.77L1097.02 654.29" stroke="#132e65" stroke-width="1.5"></path><path d="M1123.07 -42.29L1123.07 -42.29" stroke="#132e65" stroke-width="1.5"></path><path d="M1123.07 -42.29L1125.88 71.12" stroke="#132e65" stroke-width="1.5"></path><path d="M1123.07 -42.29L1288.54 -110.11" stroke="#132e65" stroke-width="1.5"></path><path d="M1123.07 -42.29L1003.81 98.65" stroke="#132e65" stroke-width="1.5"></path><path d="M1123.07 -42.29L1308.73 78.42" stroke="#132e65" stroke-width="1.5"></path><path d="M1123.07 -42.29L1161.93 213.97" stroke="#132e65" stroke-width="1.5"></path><path d="M1125.88 71.12L1125.88 71.12" stroke="#132e65" stroke-width="1.5"></path><path d="M1125.88 71.12L1161.93 213.97" stroke="#132e65" stroke-width="1.5"></path><path d="M1125.88 71.12L1308.73 78.42" stroke="#132e65" stroke-width="1.5"></path><path d="M1125.88 71.12L998.46 229.79" stroke="#132e65" stroke-width="1.5"></path><path d="M1161.93 213.97L1161.93 213.97" stroke="#132e65" stroke-width="1.5"></path><path d="M1161.93 213.97L1294.12 210.48" stroke="#132e65" stroke-width="1.5"></path><path d="M1161.93 213.97L998.46 229.79" stroke="#132e65" stroke-width="1.5"></path><path d="M1089.27 400.31L1089.27 400.31" stroke="#132e65" stroke-width="1.5"></path><path d="M1089.27 400.31L1141.56 499.7" stroke="#132e65" stroke-width="1.5"></path><path d="M1089.27 400.31L994.96 537.8" stroke="#132e65" stroke-width="1.5"></path><path d="M1089.27 400.31L1269.42 357.67" stroke="#132e65" stroke-width="1.5"></path><path d="M1089.27 400.31L998.46 229.79" stroke="#132e65" stroke-width="1.5"></path><path d="M1141.56 499.7L1141.56 499.7" stroke="#132e65" stroke-width="1.5"></path><path d="M1141.56 499.7L1257.56 555.04" stroke="#132e65" stroke-width="1.5"></path><path d="M1141.56 499.7L1097.02 654.29" stroke="#132e65" stroke-width="1.5"></path><path d="M1141.56 499.7L1269.42 357.67" stroke="#132e65" stroke-width="1.5"></path><path d="M1097.02 654.29L1097.02 654.29" stroke="#132e65" stroke-width="1.5"></path><path d="M1288.54 -110.11L1288.54 -110.11" stroke="#132e65" stroke-width="1.5"></path><path d="M1288.54 -110.11L1430.04 -99.8" stroke="#132e65" stroke-width="1.5"></path><path d="M1288.54 -110.11L1308.73 78.42" stroke="#132e65" stroke-width="1.5"></path><path d="M1308.73 78.42L1308.73 78.42" stroke="#132e65" stroke-width="1.5"></path><path d="M1308.73 78.42L1294.12 210.48" stroke="#132e65" stroke-width="1.5"></path><path d="M1308.73 78.42L1446.1 90.16" stroke="#132e65" stroke-width="1.5"></path><path d="M1308.73 78.42L1388.15 216.26" stroke="#132e65" stroke-width="1.5"></path><path d="M1294.12 210.48L1294.12 210.48" stroke="#132e65" stroke-width="1.5"></path><path d="M1294.12 210.48L1388.15 216.26" stroke="#132e65" stroke-width="1.5"></path><path d="M1269.42 357.67L1269.42 357.67" stroke="#132e65" stroke-width="1.5"></path><path d="M1269.42 357.67L1294.12 210.48" stroke="#132e65" stroke-width="1.5"></path><path d="M1269.42 357.67L1430.25 371.5" stroke="#132e65" stroke-width="1.5"></path><path d="M1269.42 357.67L1161.93 213.97" stroke="#132e65" stroke-width="1.5"></path><path d="M1269.42 357.67L1388.15 216.26" stroke="#132e65" stroke-width="1.5"></path><path d="M1257.56 555.04L1257.56 555.04" stroke="#132e65" stroke-width="1.5"></path><path d="M1257.56 555.04L1284.74 700.19" stroke="#132e65" stroke-width="1.5"></path><path d="M1284.74 700.19L1284.74 700.19" stroke="#132e65" stroke-width="1.5"></path><path d="M1284.74 700.19L1458.32 688.59" stroke="#132e65" stroke-width="1.5"></path><path d="M1284.74 700.19L1406.47 557.6" stroke="#132e65" stroke-width="1.5"></path><path d="M1284.74 700.19L1097.02 654.29" stroke="#132e65" stroke-width="1.5"></path><path d="M1430.04 -99.8L1430.04 -99.8" stroke="#132e65" stroke-width="1.5"></path><path d="M1430.04 -99.8L1586.77 -86.35" stroke="#132e65" stroke-width="1.5"></path><path d="M1430.04 -99.8L1446.1 90.16" stroke="#132e65" stroke-width="1.5"></path><path d="M1430.04 -99.8L1308.73 78.42" stroke="#132e65" stroke-width="1.5"></path><path d="M1430.04 -99.8L1560.6 87.32" stroke="#132e65" stroke-width="1.5"></path><path d="M1430.04 -99.8L1123.07 -42.29" stroke="#132e65" stroke-width="1.5"></path><path d="M1446.1 90.16L1446.1 90.16" stroke="#132e65" stroke-width="1.5"></path><path d="M1446.1 90.16L1560.6 87.32" stroke="#132e65" stroke-width="1.5"></path><path d="M1446.1 90.16L1388.15 216.26" stroke="#132e65" stroke-width="1.5"></path><path d="M1446.1 90.16L1562.15 189.56" stroke="#132e65" stroke-width="1.5"></path><path d="M1446.1 90.16L1294.12 210.48" stroke="#132e65" stroke-width="1.5"></path><path d="M1388.15 216.26L1388.15 216.26" stroke="#132e65" stroke-width="1.5"></path><path d="M1388.15 216.26L1430.25 371.5" stroke="#132e65" stroke-width="1.5"></path><path d="M1430.25 371.5L1430.25 371.5" stroke="#132e65" stroke-width="1.5"></path><path d="M1430.25 371.5L1570.96 362.92" stroke="#132e65" stroke-width="1.5"></path><path d="M1430.25 371.5L1552.28 494.93" stroke="#132e65" stroke-width="1.5"></path><path d="M1430.25 371.5L1406.47 557.6" stroke="#132e65" stroke-width="1.5"></path><path d="M1406.47 557.6L1406.47 557.6" stroke="#132e65" stroke-width="1.5"></path><path d="M1406.47 557.6L1458.32 688.59" stroke="#132e65" stroke-width="1.5"></path><path d="M1406.47 557.6L1257.56 555.04" stroke="#132e65" stroke-width="1.5"></path><path d="M1458.32 688.59L1458.32 688.59" stroke="#132e65" stroke-width="1.5"></path><path d="M1458.32 688.59L1564.69 661.44" stroke="#132e65" stroke-width="1.5"></path><path d="M1458.32 688.59L1552.28 494.93" stroke="#132e65" stroke-width="1.5"></path><path d="M1458.32 688.59L1257.56 555.04" stroke="#132e65" stroke-width="1.5"></path><path d="M1586.77 -86.35L1586.77 -86.35" stroke="#132e65" stroke-width="1.5"></path><path d="M1586.77 -86.35L1560.6 87.32" stroke="#132e65" stroke-width="1.5"></path><path d="M1586.77 -86.35L1446.1 90.16" stroke="#132e65" stroke-width="1.5"></path><path d="M1586.77 -86.35L1562.15 189.56" stroke="#132e65" stroke-width="1.5"></path><path d="M1586.77 -86.35L1288.54 -110.11" stroke="#132e65" stroke-width="1.5"></path><path d="M1560.6 87.32L1560.6 87.32" stroke="#132e65" stroke-width="1.5"></path><path d="M1560.6 87.32L1562.15 189.56" stroke="#132e65" stroke-width="1.5"></path><path d="M1560.6 87.32L1388.15 216.26" stroke="#132e65" stroke-width="1.5"></path><path d="M1562.15 189.56L1562.15 189.56" stroke="#132e65" stroke-width="1.5"></path><path d="M1562.15 189.56L1570.96 362.92" stroke="#132e65" stroke-width="1.5"></path><path d="M1562.15 189.56L1388.15 216.26" stroke="#132e65" stroke-width="1.5"></path><path d="M1562.15 189.56L1430.25 371.5" stroke="#132e65" stroke-width="1.5"></path><path d="M1562.15 189.56L1294.12 210.48" stroke="#132e65" stroke-width="1.5"></path><path d="M1570.96 362.92L1570.96 362.92" stroke="#132e65" stroke-width="1.5"></path><path d="M1570.96 362.92L1552.28 494.93" stroke="#132e65" stroke-width="1.5"></path><path d="M1570.96 362.92L1388.15 216.26" stroke="#132e65" stroke-width="1.5"></path><path d="M1552.28 494.93L1552.28 494.93" stroke="#132e65" stroke-width="1.5"></path><path d="M1552.28 494.93L1406.47 557.6" stroke="#132e65" stroke-width="1.5"></path><path d="M1552.28 494.93L1564.69 661.44" stroke="#132e65" stroke-width="1.5"></path><path d="M1552.28 494.93L1257.56 555.04" stroke="#132e65" stroke-width="1.5"></path><path d="M1564.69 661.44L1564.69 661.44" stroke="#132e65" stroke-width="1.5"></path><path d="M1564.69 661.44L1406.47 557.6" stroke="#132e65" stroke-width="1.5"></path><path d="M1564.69 661.44L1284.74 700.19" stroke="#132e65" stroke-width="1.5"></path><path d="M1564.69 661.44L1570.96 362.92" stroke="#132e65" stroke-width="1.5"></path><circle r="5" cx="-68.94" cy="520.4" fill="#132e65"></circle><circle r="5" cx="104.69" cy="371.33" fill="#132e65"></circle><circle r="5" cx="105.7" cy="512.42" fill="#132e65"></circle><circle r="5" cx="198.33" cy="359.1" fill="#132e65"></circle><circle r="5" cx="227.88" cy="549.63" fill="#132e65"></circle><circle r="5" cx="208.08" cy="681.22" fill="#132e65"></circle><circle r="5" cx="375.92" cy="378.24" fill="#132e65"></circle><circle r="5" cx="379.02" cy="708.08" fill="#132e65"></circle><circle r="5" cx="536.53" cy="378.82" fill="#132e65"></circle><circle r="5" cx="506.72" cy="498.99" fill="#132e65"></circle><circle r="5" cx="548.74" cy="709.27" fill="#132e65"></circle><circle r="5" cx="706.62" cy="373.65" fill="#132e65"></circle><circle r="5" cx="645.78" cy="539" fill="#132e65"></circle><circle r="5" cx="651.9" cy="674.09" fill="#132e65"></circle><circle r="5" cx="812.09" cy="251.57" fill="#132e65"></circle><circle r="5" cx="820.15" cy="377.01" fill="#132e65"></circle><circle r="5" cx="807.2" cy="500.78" fill="#132e65"></circle><circle r="5" cx="828.56" cy="689.46" fill="#132e65"></circle><circle r="5" cx="965.31" cy="-54.73" fill="#132e65"></circle><circle r="5" cx="1003.81" cy="98.65" fill="#132e65"></circle><circle r="5" cx="998.46" cy="229.79" fill="#132e65"></circle><circle r="5" cx="968.81" cy="362.89" fill="#132e65"></circle><circle r="5" cx="994.96" cy="537.8" fill="#132e65"></circle><circle r="5" cx="988.33" cy="700.77" fill="#132e65"></circle><circle r="5" cx="1123.07" cy="-42.29" fill="#132e65"></circle><circle r="5" cx="1125.88" cy="71.12" fill="#132e65"></circle><circle r="5" cx="1161.93" cy="213.97" fill="#132e65"></circle><circle r="5" cx="1089.27" cy="400.31" fill="#132e65"></circle><circle r="5" cx="1141.56" cy="499.7" fill="#132e65"></circle><circle r="5" cx="1097.02" cy="654.29" fill="#132e65"></circle><circle r="5" cx="1288.54" cy="-110.11" fill="#132e65"></circle><circle r="5" cx="1308.73" cy="78.42" fill="#132e65"></circle><circle r="5" cx="1294.12" cy="210.48" fill="#132e65"></circle><circle r="5" cx="1269.42" cy="357.67" fill="#132e65"></circle><circle r="5" cx="1257.56" cy="555.04" fill="#132e65"></circle><circle r="5" cx="1284.74" cy="700.19" fill="#132e65"></circle><circle r="5" cx="1430.04" cy="-99.8" fill="#132e65"></circle><circle r="5" cx="1446.1" cy="90.16" fill="#132e65"></circle><circle r="5" cx="1388.15" cy="216.26" fill="#132e65"></circle><circle r="5" cx="1430.25" cy="371.5" fill="#132e65"></circle><circle r="5" cx="1406.47" cy="557.6" fill="#132e65"></circle><circle r="5" cx="1458.32" cy="688.59" fill="#132e65"></circle><circle r="5" cx="1586.77" cy="-86.35" fill="#132e65"></circle><circle r="5" cx="1560.6" cy="87.32" fill="#132e65"></circle><circle r="5" cx="1562.15" cy="189.56" fill="#132e65"></circle><circle r="5" cx="1570.96" cy="362.92" fill="#132e65"></circle><circle r="5" cx="1552.28" cy="494.93" fill="#132e65"></circle><circle r="5" cx="1564.69" cy="661.44" fill="#132e65"></circle><path d="M-95.13 493.34L-95.13 493.34" stroke="hsl(228.5, 77.2%, 51.5%)" stroke-width="1.5"></path><path d="M-95.13 493.34L-81.37 649.29" stroke="hsl(228.5, 77.2%, 51.5%)" stroke-width="1.5"></path><path d="M-95.13 493.34L102.25 513.37" stroke="hsl(228.5, 77.2%, 51.5%)" stroke-width="1.5"></path><path d="M205.17 490.7L205.17 490.7" stroke="hsl(228.5, 77.2%, 51.5%)" stroke-width="1.5"></path><path d="M205.17 490.7L102.25 513.37" stroke="hsl(228.5, 77.2%, 51.5%)" stroke-width="1.5"></path><path d="M205.17 490.7L394.06 532.9" stroke="hsl(228.5, 77.2%, 51.5%)" stroke-width="1.5"></path><path d="M205.17 490.7L218.71 687.61" stroke="hsl(228.5, 77.2%, 51.5%)" stroke-width="1.5"></path><path d="M205.17 490.7L45.18 655.76" stroke="hsl(228.5, 77.2%, 51.5%)" stroke-width="1.5"></path><path d="M671.82 377.87L671.82 377.87" stroke="hsl(228.5, 77.2%, 51.5%)" stroke-width="1.5"></path><path d="M671.82 377.87L814.17 409.5" stroke="hsl(228.5, 77.2%, 51.5%)" stroke-width="1.5"></path><path d="M671.82 377.87L656.34 534.16" stroke="hsl(228.5, 77.2%, 51.5%)" stroke-width="1.5"></path><path d="M671.82 377.87L537.3 495.46" stroke="hsl(228.5, 77.2%, 51.5%)" stroke-width="1.5"></path><path d="M671.82 377.87L830.63 494.13" stroke="hsl(228.5, 77.2%, 51.5%)" stroke-width="1.5"></path><path d="M830.63 494.13L830.63 494.13" stroke="hsl(228.5, 77.2%, 51.5%)" stroke-width="1.5"></path><path d="M830.63 494.13L814.17 409.5" stroke="hsl(228.5, 77.2%, 51.5%)" stroke-width="1.5"></path><path d="M830.63 494.13L953.81 537.13" stroke="hsl(228.5, 77.2%, 51.5%)" stroke-width="1.5"></path><path d="M953.81 537.13L953.81 537.13" stroke="hsl(228.5, 77.2%, 51.5%)" stroke-width="1.5"></path><path d="M953.81 537.13L980.69 663.65" stroke="hsl(228.5, 77.2%, 51.5%)" stroke-width="1.5"></path><path d="M953.81 537.13L1123.4 490.62" stroke="hsl(228.5, 77.2%, 51.5%)" stroke-width="1.5"></path><path d="M953.81 537.13L814.17 409.5" stroke="hsl(228.5, 77.2%, 51.5%)" stroke-width="1.5"></path><path d="M953.81 537.13L821.4 674.72" stroke="hsl(228.5, 77.2%, 51.5%)" stroke-width="1.5"></path><path d="M1099.66 196.25L1099.66 196.25" stroke="hsl(228.5, 77.2%, 51.5%)" stroke-width="1.5"></path><path d="M1099.66 196.25L1001.99 223.85" stroke="hsl(228.5, 77.2%, 51.5%)" stroke-width="1.5"></path><path d="M1099.66 196.25L1103.39 374.91" stroke="hsl(228.5, 77.2%, 51.5%)" stroke-width="1.5"></path><path d="M1099.66 196.25L1284.53 257.59" stroke="hsl(228.5, 77.2%, 51.5%)" stroke-width="1.5"></path><path d="M1099.66 196.25L1299.69 95.04" stroke="hsl(228.5, 77.2%, 51.5%)" stroke-width="1.5"></path><path d="M1123.4 490.62L1123.4 490.62" stroke="hsl(228.5, 77.2%, 51.5%)" stroke-width="1.5"></path><path d="M1123.4 490.62L1103.39 374.91" stroke="hsl(228.5, 77.2%, 51.5%)" stroke-width="1.5"></path><path d="M1123.4 490.62L1265.98 401.78" stroke="hsl(228.5, 77.2%, 51.5%)" stroke-width="1.5"></path><path d="M1123.4 490.62L1150.94 692.23" stroke="hsl(228.5, 77.2%, 51.5%)" stroke-width="1.5"></path><path d="M1123.4 490.62L980.69 663.65" stroke="hsl(228.5, 77.2%, 51.5%)" stroke-width="1.5"></path><path d="M1547.27 -73.49L1547.27 -73.49" stroke="hsl(228.5, 77.2%, 51.5%)" stroke-width="1.5"></path><path d="M1547.27 -73.49L1427.95 -40.09" stroke="hsl(228.5, 77.2%, 51.5%)" stroke-width="1.5"></path><path d="M-81.37 649.29L-81.37 649.29" stroke="hsl(228.5, 77.2%, 51.5%)" stroke-width="1.5"></path><path d="M-81.37 649.29L45.18 655.76" stroke="hsl(228.5, 77.2%, 51.5%)" stroke-width="1.5"></path><path d="M-81.37 649.29L102.25 513.37" stroke="hsl(228.5, 77.2%, 51.5%)" stroke-width="1.5"></path><path d="M102.25 513.37L102.25 513.37" stroke="hsl(228.5, 77.2%, 51.5%)" stroke-width="1.5"></path><path d="M102.25 513.37L45.18 655.76" stroke="hsl(228.5, 77.2%, 51.5%)" stroke-width="1.5"></path><path d="M102.25 513.37L218.71 687.61" stroke="hsl(228.5, 77.2%, 51.5%)" stroke-width="1.5"></path><path d="M102.25 513.37L394.06 532.9" stroke="hsl(228.5, 77.2%, 51.5%)" stroke-width="1.5"></path><path d="M45.18 655.76L45.18 655.76" stroke="hsl(228.5, 77.2%, 51.5%)" stroke-width="1.5"></path><path d="M45.18 655.76L218.71 687.61" stroke="hsl(228.5, 77.2%, 51.5%)" stroke-width="1.5"></path><path d="M45.18 655.76L-95.13 493.34" stroke="hsl(228.5, 77.2%, 51.5%)" stroke-width="1.5"></path><path d="M218.71 687.61L218.71 687.61" stroke="hsl(228.5, 77.2%, 51.5%)" stroke-width="1.5"></path><path d="M218.71 687.61L406.98 704.24" stroke="hsl(228.5, 77.2%, 51.5%)" stroke-width="1.5"></path><path d="M394.06 532.9L394.06 532.9" stroke="hsl(228.5, 77.2%, 51.5%)" stroke-width="1.5"></path><path d="M394.06 532.9L537.3 495.46" stroke="hsl(228.5, 77.2%, 51.5%)" stroke-width="1.5"></path><path d="M394.06 532.9L406.98 704.24" stroke="hsl(228.5, 77.2%, 51.5%)" stroke-width="1.5"></path><path d="M406.98 704.24L406.98 704.24" stroke="hsl(228.5, 77.2%, 51.5%)" stroke-width="1.5"></path><path d="M406.98 704.24L517.79 684.58" stroke="hsl(228.5, 77.2%, 51.5%)" stroke-width="1.5"></path><path d="M406.98 704.24L537.3 495.46" stroke="hsl(228.5, 77.2%, 51.5%)" stroke-width="1.5"></path><path d="M406.98 704.24L205.17 490.7" stroke="hsl(228.5, 77.2%, 51.5%)" stroke-width="1.5"></path><path d="M537.3 495.46L537.3 495.46" stroke="hsl(228.5, 77.2%, 51.5%)" stroke-width="1.5"></path><path d="M537.3 495.46L656.34 534.16" stroke="hsl(228.5, 77.2%, 51.5%)" stroke-width="1.5"></path><path d="M517.79 684.58L517.79 684.58" stroke="hsl(228.5, 77.2%, 51.5%)" stroke-width="1.5"></path><path d="M517.79 684.58L537.3 495.46" stroke="hsl(228.5, 77.2%, 51.5%)" stroke-width="1.5"></path><path d="M656.34 534.16L656.34 534.16" stroke="hsl(228.5, 77.2%, 51.5%)" stroke-width="1.5"></path><path d="M656.34 534.16L830.63 494.13" stroke="hsl(228.5, 77.2%, 51.5%)" stroke-width="1.5"></path><path d="M814.17 409.5L814.17 409.5" stroke="hsl(228.5, 77.2%, 51.5%)" stroke-width="1.5"></path><path d="M821.4 674.72L821.4 674.72" stroke="hsl(228.5, 77.2%, 51.5%)" stroke-width="1.5"></path><path d="M821.4 674.72L980.69 663.65" stroke="hsl(228.5, 77.2%, 51.5%)" stroke-width="1.5"></path><path d="M821.4 674.72L830.63 494.13" stroke="hsl(228.5, 77.2%, 51.5%)" stroke-width="1.5"></path><path d="M1001.99 223.85L1001.99 223.85" stroke="hsl(228.5, 77.2%, 51.5%)" stroke-width="1.5"></path><path d="M1001.99 223.85L1103.39 374.91" stroke="hsl(228.5, 77.2%, 51.5%)" stroke-width="1.5"></path><path d="M1001.99 223.85L814.17 409.5" stroke="hsl(228.5, 77.2%, 51.5%)" stroke-width="1.5"></path><path d="M1001.99 223.85L1284.53 257.59" stroke="hsl(228.5, 77.2%, 51.5%)" stroke-width="1.5"></path><path d="M1001.99 223.85L1123.4 490.62" stroke="hsl(228.5, 77.2%, 51.5%)" stroke-width="1.5"></path><path d="M980.69 663.65L980.69 663.65" stroke="hsl(228.5, 77.2%, 51.5%)" stroke-width="1.5"></path><path d="M980.69 663.65L1150.94 692.23" stroke="hsl(228.5, 77.2%, 51.5%)" stroke-width="1.5"></path><path d="M980.69 663.65L830.63 494.13" stroke="hsl(228.5, 77.2%, 51.5%)" stroke-width="1.5"></path><path d="M980.69 663.65L814.17 409.5" stroke="hsl(228.5, 77.2%, 51.5%)" stroke-width="1.5"></path><path d="M1103.39 374.91L1103.39 374.91" stroke="hsl(228.5, 77.2%, 51.5%)" stroke-width="1.5"></path><path d="M1103.39 374.91L1265.98 401.78" stroke="hsl(228.5, 77.2%, 51.5%)" stroke-width="1.5"></path><path d="M1103.39 374.91L1284.53 257.59" stroke="hsl(228.5, 77.2%, 51.5%)" stroke-width="1.5"></path><path d="M1103.39 374.91L953.81 537.13" stroke="hsl(228.5, 77.2%, 51.5%)" stroke-width="1.5"></path><path d="M1150.94 692.23L1150.94 692.23" stroke="hsl(228.5, 77.2%, 51.5%)" stroke-width="1.5"></path><path d="M1150.94 692.23L1299.47 663.24" stroke="hsl(228.5, 77.2%, 51.5%)" stroke-width="1.5"></path><path d="M1150.94 692.23L953.81 537.13" stroke="hsl(228.5, 77.2%, 51.5%)" stroke-width="1.5"></path><path d="M1299.09 -54.77L1299.09 -54.77" stroke="hsl(228.5, 77.2%, 51.5%)" stroke-width="1.5"></path><path d="M1299.09 -54.77L1427.95 -40.09" stroke="hsl(228.5, 77.2%, 51.5%)" stroke-width="1.5"></path><path d="M1299.09 -54.77L1299.69 95.04" stroke="hsl(228.5, 77.2%, 51.5%)" stroke-width="1.5"></path><path d="M1299.09 -54.77L1399.04 94.61" stroke="hsl(228.5, 77.2%, 51.5%)" stroke-width="1.5"></path><path d="M1299.09 -54.77L1547.27 -73.49" stroke="hsl(228.5, 77.2%, 51.5%)" stroke-width="1.5"></path><path d="M1299.69 95.04L1299.69 95.04" stroke="hsl(228.5, 77.2%, 51.5%)" stroke-width="1.5"></path><path d="M1299.69 95.04L1399.04 94.61" stroke="hsl(228.5, 77.2%, 51.5%)" stroke-width="1.5"></path><path d="M1299.69 95.04L1424.07 188.4" stroke="hsl(228.5, 77.2%, 51.5%)" stroke-width="1.5"></path><path d="M1299.69 95.04L1284.53 257.59" stroke="hsl(228.5, 77.2%, 51.5%)" stroke-width="1.5"></path><path d="M1299.69 95.04L1427.95 -40.09" stroke="hsl(228.5, 77.2%, 51.5%)" stroke-width="1.5"></path><path d="M1284.53 257.59L1284.53 257.59" stroke="hsl(228.5, 77.2%, 51.5%)" stroke-width="1.5"></path><path d="M1284.53 257.59L1265.98 401.78" stroke="hsl(228.5, 77.2%, 51.5%)" stroke-width="1.5"></path><path d="M1284.53 257.59L1424.07 188.4" stroke="hsl(228.5, 77.2%, 51.5%)" stroke-width="1.5"></path><path d="M1284.53 257.59L1417.78 344.33" stroke="hsl(228.5, 77.2%, 51.5%)" stroke-width="1.5"></path><path d="M1265.98 401.78L1265.98 401.78" stroke="hsl(228.5, 77.2%, 51.5%)" stroke-width="1.5"></path><path d="M1265.98 401.78L1417.78 344.33" stroke="hsl(228.5, 77.2%, 51.5%)" stroke-width="1.5"></path><path d="M1299.47 663.24L1299.47 663.24" stroke="hsl(228.5, 77.2%, 51.5%)" stroke-width="1.5"></path><path d="M1299.47 663.24L1436.59 648.57" stroke="hsl(228.5, 77.2%, 51.5%)" stroke-width="1.5"></path><path d="M1427.95 -40.09L1427.95 -40.09" stroke="hsl(228.5, 77.2%, 51.5%)" stroke-width="1.5"></path><path d="M1399.04 94.61L1399.04 94.61" stroke="hsl(228.5, 77.2%, 51.5%)" stroke-width="1.5"></path><path d="M1399.04 94.61L1424.07 188.4" stroke="hsl(228.5, 77.2%, 51.5%)" stroke-width="1.5"></path><path d="M1399.04 94.61L1427.95 -40.09" stroke="hsl(228.5, 77.2%, 51.5%)" stroke-width="1.5"></path><path d="M1424.07 188.4L1424.07 188.4" stroke="hsl(228.5, 77.2%, 51.5%)" stroke-width="1.5"></path><path d="M1424.07 188.4L1552.14 261.79" stroke="hsl(228.5, 77.2%, 51.5%)" stroke-width="1.5"></path><path d="M1417.78 344.33L1417.78 344.33" stroke="hsl(228.5, 77.2%, 51.5%)" stroke-width="1.5"></path><path d="M1417.78 344.33L1424.07 188.4" stroke="hsl(228.5, 77.2%, 51.5%)" stroke-width="1.5"></path><path d="M1417.78 344.33L1552.14 261.79" stroke="hsl(228.5, 77.2%, 51.5%)" stroke-width="1.5"></path><path d="M1457.26 561L1457.26 561" stroke="hsl(228.5, 77.2%, 51.5%)" stroke-width="1.5"></path><path d="M1457.26 561L1436.59 648.57" stroke="hsl(228.5, 77.2%, 51.5%)" stroke-width="1.5"></path><path d="M1457.26 561L1590.68 537.36" stroke="hsl(228.5, 77.2%, 51.5%)" stroke-width="1.5"></path><path d="M1457.26 561L1299.47 663.24" stroke="hsl(228.5, 77.2%, 51.5%)" stroke-width="1.5"></path><path d="M1457.26 561L1576.02 707" stroke="hsl(228.5, 77.2%, 51.5%)" stroke-width="1.5"></path><path d="M1436.59 648.57L1436.59 648.57" stroke="hsl(228.5, 77.2%, 51.5%)" stroke-width="1.5"></path><path d="M1436.59 648.57L1576.02 707" stroke="hsl(228.5, 77.2%, 51.5%)" stroke-width="1.5"></path><path d="M1572.75 53.68L1572.75 53.68" stroke="hsl(228.5, 77.2%, 51.5%)" stroke-width="1.5"></path><path d="M1572.75 53.68L1547.27 -73.49" stroke="hsl(228.5, 77.2%, 51.5%)" stroke-width="1.5"></path><path d="M1572.75 53.68L1427.95 -40.09" stroke="hsl(228.5, 77.2%, 51.5%)" stroke-width="1.5"></path><path d="M1572.75 53.68L1399.04 94.61" stroke="hsl(228.5, 77.2%, 51.5%)" stroke-width="1.5"></path><path d="M1572.75 53.68L1424.07 188.4" stroke="hsl(228.5, 77.2%, 51.5%)" stroke-width="1.5"></path><path d="M1572.75 53.68L1552.14 261.79" stroke="hsl(228.5, 77.2%, 51.5%)" stroke-width="1.5"></path><path d="M1552.14 261.79L1552.14 261.79" stroke="hsl(228.5, 77.2%, 51.5%)" stroke-width="1.5"></path><path d="M1552.14 261.79L1606.84 385.98" stroke="hsl(228.5, 77.2%, 51.5%)" stroke-width="1.5"></path><path d="M1606.84 385.98L1606.84 385.98" stroke="hsl(228.5, 77.2%, 51.5%)" stroke-width="1.5"></path><path d="M1606.84 385.98L1590.68 537.36" stroke="hsl(228.5, 77.2%, 51.5%)" stroke-width="1.5"></path><path d="M1606.84 385.98L1417.78 344.33" stroke="hsl(228.5, 77.2%, 51.5%)" stroke-width="1.5"></path><path d="M1606.84 385.98L1457.26 561" stroke="hsl(228.5, 77.2%, 51.5%)" stroke-width="1.5"></path><path d="M1606.84 385.98L1424.07 188.4" stroke="hsl(228.5, 77.2%, 51.5%)" stroke-width="1.5"></path><path d="M1606.84 385.98L1436.59 648.57" stroke="hsl(228.5, 77.2%, 51.5%)" stroke-width="1.5"></path><path d="M1590.68 537.36L1590.68 537.36" stroke="hsl(228.5, 77.2%, 51.5%)" stroke-width="1.5"></path><path d="M1576.02 707L1576.02 707" stroke="hsl(228.5, 77.2%, 51.5%)" stroke-width="1.5"></path><path d="M1576.02 707L1590.68 537.36" stroke="hsl(228.5, 77.2%, 51.5%)" stroke-width="1.5"></path><path d="M1576.02 707L1299.47 663.24" stroke="hsl(228.5, 77.2%, 51.5%)" stroke-width="1.5"></path><circle r="25" cx="-95.13" cy="493.34" fill="url(&quot;#SvgjsRadialGradient1014&quot;)"></circle><circle r="25" cx="205.17" cy="490.7" fill="url(&quot;#SvgjsRadialGradient1014&quot;)"></circle><circle r="25" cx="671.82" cy="377.87" fill="url(&quot;#SvgjsRadialGradient1014&quot;)"></circle><circle r="25" cx="830.63" cy="494.13" fill="url(&quot;#SvgjsRadialGradient1014&quot;)"></circle><circle r="25" cx="953.81" cy="537.13" fill="url(&quot;#SvgjsRadialGradient1014&quot;)"></circle><circle r="25" cx="1099.66" cy="196.25" fill="url(&quot;#SvgjsRadialGradient1014&quot;)"></circle><circle r="25" cx="1123.4" cy="490.62" fill="url(&quot;#SvgjsRadialGradient1014&quot;)"></circle><circle r="25" cx="1547.27" cy="-73.49" fill="url(&quot;#SvgjsRadialGradient1014&quot;)"></circle><circle r="5" cx="-81.37" cy="649.29" fill="#8b9ad9"></circle><circle r="5" cx="102.25" cy="513.37" fill="#8b9ad9"></circle><circle r="5" cx="45.18" cy="655.76" fill="#8b9ad9"></circle><circle r="5" cx="218.71" cy="687.61" fill="#8b9ad9"></circle><circle r="5" cx="394.06" cy="532.9" fill="#8b9ad9"></circle><circle r="5" cx="406.98" cy="704.24" fill="#8b9ad9"></circle><circle r="5" cx="537.3" cy="495.46" fill="#8b9ad9"></circle><circle r="5" cx="517.79" cy="684.58" fill="#8b9ad9"></circle><circle r="5" cx="656.34" cy="534.16" fill="#8b9ad9"></circle><circle r="5" cx="814.17" cy="409.5" fill="#8b9ad9"></circle><circle r="5" cx="821.4" cy="674.72" fill="#8b9ad9"></circle><circle r="5" cx="1001.99" cy="223.85" fill="#8b9ad9"></circle><circle r="5" cx="980.69" cy="663.65" fill="#8b9ad9"></circle><circle r="5" cx="1103.39" cy="374.91" fill="#8b9ad9"></circle><circle r="5" cx="1150.94" cy="692.23" fill="#8b9ad9"></circle><circle r="5" cx="1299.09" cy="-54.77" fill="#8b9ad9"></circle><circle r="5" cx="1299.69" cy="95.04" fill="#8b9ad9"></circle><circle r="5" cx="1284.53" cy="257.59" fill="#8b9ad9"></circle><circle r="5" cx="1265.98" cy="401.78" fill="#8b9ad9"></circle><circle r="5" cx="1299.47" cy="663.24" fill="#8b9ad9"></circle><circle r="5" cx="1427.95" cy="-40.09" fill="#8b9ad9"></circle><circle r="5" cx="1399.04" cy="94.61" fill="#8b9ad9"></circle><circle r="5" cx="1424.07" cy="188.4" fill="#8b9ad9"></circle><circle r="5" cx="1417.78" cy="344.33" fill="#8b9ad9"></circle><circle r="5" cx="1457.26" cy="561" fill="#8b9ad9"></circle><circle r="5" cx="1436.59" cy="648.57" fill="#8b9ad9"></circle><circle r="5" cx="1572.75" cy="53.68" fill="#8b9ad9"></circle><circle r="5" cx="1552.14" cy="261.79" fill="#8b9ad9"></circle><circle r="5" cx="1606.84" cy="385.98" fill="#8b9ad9"></circle><circle r="5" cx="1590.68" cy="537.36" fill="#8b9ad9"></circle><circle r="5" cx="1576.02" cy="707" fill="#8b9ad9"></circle></g><defs><mask id="SvgjsMask1013"><rect width="1440" height="560" fill="#ffffff"></rect></mask><radialGradient id="SvgjsRadialGradient1014"><stop stop-color="#ffffff" offset="0.1"></stop><stop stop-color="#1735b3" offset="0.2"></stop><stop stop-color="rgba(23, 53, 179, 0)" offset="1"></stop></radialGradient></defs></svg>